<?xml version="1.0" encoding="utf-8"?>
<!-- Generator: Adobe Illustrator 25.2.3, SVG Export Plug-In . SVG Version: 6.00 Build 0)  -->
<svg version="1.1" id="Camada_1" xmlns="http://www.w3.org/2000/svg" xmlns:xlink="http://www.w3.org/1999/xlink" x="0px" y="0px"
	 viewBox="0 0 1080 1080" style="enable-background:new 0 0 1080 1080;" xml:space="preserve">
<style type="text/css">
	.st0{fill:#FAF0FF;}
	.st1{fill:#221F22;}
	.st2{fill:#DB83EA;}
	.st3{opacity:0.2;fill:#221F22;}
	.st4{fill:#454245;}
	.st5{fill:#FFFFFF;}
	.st6{fill:#AA04D5;}
	.st7{fill:#E0A48A;}
	.st8{opacity:0.5;}
	.st9{opacity:0.2;}
	.st10{fill:#1572B4;}
	.st11{fill:#35A7DA;}
	.st12{fill:#E9E9E9;}
	.st13{fill:#E14D26;}
	.st14{fill:#EF6529;}
	.st15{fill:#549C43;}
	.st16{display:none;fill:#221F22;}
	.st17{fill:#EFD94F;}
	.st18{fill:#FF3D3D;}
	.st19{fill:#5FD8F9;}
	.st20{fill:#3278C4;}
</style>
<g>
	<circle class="st0" cx="563.3" cy="471.5" r="365.7"/>
	<path class="st0" d="M570.6,442.2H136.1c-8.2,0-14.9-6.7-14.9-14.9V213c0-8.2,6.7-14.9,14.9-14.9h434.6c8.2,0,14.9,6.7,14.9,14.9
		v214.3C585.5,435.6,578.8,442.2,570.6,442.2z"/>
	<g>
		<path class="st1" d="M521,197.6c12.2,0,22.1,9.9,22.1,22.1v170.9c0,12.2-9.9,22.1-22.1,22.1H173c-12.2,0-22.1-9.9-22.1-22.1V219.7
			c0-12.2,9.9-22.1,22.1-22.1H521 M521,191.7H173c-15.4,0-28,12.5-28,28v170.9c0,15.4,12.5,28,28,28h348c15.4,0,28-12.5,28-28V219.7
			C548.9,204.2,536.4,191.7,521,191.7L521,191.7z"/>
		<g>
			<g>
				<g>
					<path class="st2" d="M520.2,146.2L170,146.3c-12.5,0-22.2,10.3-22.2,23.7v50.8l369,0.2l29.3,0v-47
						C546.1,159,534.2,146.2,520.2,146.2"/>
				</g>
				<g>
					<path class="st1" d="M516.8,223.8L145,223.6V170c0-7.5,2.8-14.4,7.7-19.4c4.6-4.6,10.7-7.1,17.2-7.1c0,0,0,0,0,0l350.2-0.1h0
						c0,0,0,0,0,0c7.4,0,14.8,3.3,20.2,9.1c5.5,5.8,8.5,13.5,8.5,21.4v49.8L516.8,223.8z M150.6,218l366.2,0.2l26.5,0V174
						c0-6.4-2.5-12.9-7-17.6c-4.4-4.7-10.2-7.4-16.1-7.4c0,0,0,0,0,0L170,149.1c0,0,0,0,0,0c-5,0-9.7,1.9-13.2,5.5
						c-3.9,3.9-6.1,9.4-6.1,15.5V218z"/>
				</g>
				<g>
					<path class="st1" d="M263.3,187.4l-77.7,0c-2.3,0-4.2-2-4.2-4.4c0-2.5,1.9-4.4,4.2-4.4l77.7,0c2.3,0,4.2,2,4.2,4.4
						C267.5,185.4,265.6,187.4,263.3,187.4"/>
				</g>
			</g>
		</g>
	</g>
	<ellipse class="st3" cx="575.5" cy="947.8" rx="305.2" ry="41.2"/>
	<g>
		<g>
			<path class="st4" d="M550.3,915.1c0,0-83.5,23.9-95.1,28.1c-10.6,3.7-39.3,13.8-60.9,10.7c-2.1-0.3-4.2-0.8-6.2-1.3
				c-21.8-6.5-31.6-12.6-34.5-26.3c-2.9-13.8,8-23.8,18.5-30.3c10.5-6.5,67.3-13.2,67.3-13.2l13.7,4h0L550.3,915.1z"/>
		</g>
		<g>
			<path class="st5" d="M394.3,953.8c-2.1-0.3-4.2-0.8-6.2-1.3c-21.8-6.5-31.6-12.6-34.5-26.3c-2.9-13.8,8-23.8,18.5-30.3
				c10.5-6.5,67.3-13.2,67.3-13.2l13.7,4c-12.4,5.7-58.7,8.9-68.8,14.7c-10.1,5.8-15,16.8-9,31.6C378.5,940.8,387,948.4,394.3,953.8
				z"/>
		</g>
		<g>
			<path class="st1" d="M404.5,956.3c-18.5,0-36.2-4.5-45.4-16.1c-9.4-12-8.8-22.1-6.6-28.4c3.2-9.3,12.2-16.9,22.9-19.5
				c4.8-1.2,47.5-11.3,70.6-8c1.4,0.2,2.3,1.4,2.1,2.8c-0.2,1.4-1.4,2.3-2.8,2.1c-18-2.5-51.7,3.8-68.8,7.9
				c-9.1,2.2-16.7,8.6-19.4,16.3c-2.6,7.4-0.6,15.6,5.8,23.7c15.3,19.5,60.6,16.5,86.2,5.7c24.7-10.3,85.3-26.1,87.9-26.7
				c1.3-0.3,2.7,0.5,3,1.8c0.3,1.3-0.5,2.7-1.8,3c-0.6,0.2-62.8,16.3-87.2,26.5C438.6,952.6,421.2,956.3,404.5,956.3z"/>
		</g>
		<g>
			<path class="st1" d="M395.6,955.2c-0.4,0-0.8-0.1-1.2-0.3c-0.3-0.2-33.7-18.9-22.4-45.2c5.4-12.4,24.3-15.3,42.7-18.2
				c10.9-1.7,22.2-3.5,30-7.1c1.2-0.6,2.7-0.1,3.3,1.2c0.6,1.2,0.1,2.7-1.2,3.3c-8.4,4-20.1,5.8-31.3,7.5
				c-17,2.7-34.6,5.4-38.9,15.3c-9.6,22.2,19.9,38.7,20.2,38.8c1.2,0.7,1.6,2.2,1,3.4C397.3,954.7,396.5,955.2,395.6,955.2z"/>
		</g>
		<g>
			<path class="st4" d="M804.5,957.7c-0.9,8.5-3.9,16.7-12.5,21.8c-5.7,3.4-13.9,5.4-25.6,5.3c-29.3-0.4-84.3-21.3-84.3-21.3
				L630.5,935l26.8-42.4l7.3-11.6l19,4.3c0,0,15.7,8.9,31.5,16c15.8,7.1,54.1,8.6,67.5,19.5C796.1,931.6,805.9,943.5,804.5,957.7z"
				/>
		</g>
		<g>
			<path class="st5" d="M804.5,957.7c-0.9,8.5-3.9,16.7-12.5,21.8c1.6-6.6,3-15.8-1.5-25.7c-5.7-12.9-24.5-24.3-49.1-26.2
				c-24.6-1.9-43.5-13.4-53.4-18.6c-7.7-4-24-12.7-30.7-16.4l7.3-11.6l19,4.3c0,0,15.7,8.9,31.5,16c15.8,7.1,54.1,8.6,67.5,19.5
				C796.1,931.6,805.9,943.5,804.5,957.7z"/>
		</g>
		<g>
			<path class="st1" d="M771.2,987.3c-3.1,0-6.1-0.3-8.9-0.6c-40.7-4.9-82.7-19.2-121.5-41.5c-1.2-0.7-1.6-2.2-0.9-3.4
				c0.7-1.2,2.2-1.6,3.4-0.9c38.3,21.9,79.6,36.1,119.6,40.9c8.4,1,18.8,1.4,24.4-4.9c2.8-3.1,4.1-7.8,3.7-12.9
				c-1.1-13-12.6-22.4-23-26.9c-8.4-3.6-17.7-5.3-26.6-7c-3.8-0.7-7.7-1.4-11.5-2.3c-13.1-2.9-25.8-7.6-37.7-13.8
				c-2-1.1-4-2.1-6-3.3c-7.3-4-14.2-7.8-21.9-9.5c-8.7-1.8-20.3,0-25.4,8.3c-0.7,1.2-2.2,1.5-3.4,0.8c-1.2-0.7-1.5-2.2-0.8-3.4
				c6.4-10.4,20-12.8,30.6-10.6c8.4,1.8,16,5.9,23.3,10c2,1.1,3.9,2.2,5.9,3.2c11.5,6,23.8,10.5,36.5,13.4c3.7,0.8,7.6,1.6,11.4,2.2
				c9.2,1.7,18.8,3.5,27.7,7.3c11.7,5,24.6,15.8,25.9,31c0.6,6.4-1.3,12.4-4.9,16.6C785.9,985.8,778.5,987.3,771.2,987.3z"/>
		</g>
		<g>
			<path class="st1" d="M785.6,984.5c-0.9,0-1.8-0.5-2.2-1.4c-0.6-1.2-0.1-2.7,1.1-3.3c9.5-4.9,16.2-13.5,17.5-22.5
				c1.6-10.6-4-22.5-14.3-30.3c-10-7.7-22.7-11.1-33.8-13.4c-2.8-0.6-5.6-1.1-8.4-1.7c-9.5-1.8-19.4-3.7-28.7-7.3
				c-4.9-1.9-9.8-4.3-14.6-6.7c-13.2-6.5-25.6-12.7-38.5-9.2c-1.3,0.4-2.7-0.4-3-1.8c-0.4-1.3,0.4-2.7,1.8-3c14.7-3.9,28.5,3,42,9.6
				c4.7,2.3,9.5,4.7,14.2,6.5c8.9,3.5,18.5,5.3,27.8,7.1c2.8,0.5,5.7,1.1,8.5,1.7c11.7,2.4,25.1,6,35.9,14.3
				c11.7,8.9,18,22.7,16.2,35c-1.6,10.6-9.3,20.6-20.2,26.2C786.4,984.4,786,984.5,785.6,984.5z"/>
		</g>
		<g>
			<path class="st6" d="M700.1,497.2L612.9,464l-1.1-0.4c0,0,0.3-2.3,0.6-5.7c0.5-7,0.8-18.3-2.4-22.1c-4.9-5.7-18.6-0.9-32.1-7.1
				c-13.4-6.2-38.3,4.9-38.3,4.9s-17.9-3.3-25.8,9.7c-4,10.4-2.6,26-2.6,26s-0.6,0.2-1.7,0.6c-10.4,3.9-66.9,25.1-78.9,33.7
				c-13.2,9.4-27.8,105.4-32.5,133.6c-4.7,28.2-13,53.6-8.8,63.3c4.2,9.7,64.9,56.4,99.9,68.5c34.9,12.1,158.8,8.5,158.8,8.5
				s2-0.5,5.6-1.7c21-6.7,95.3-34.4,134.7-99.8C788.4,676,750.2,550.7,700.1,497.2z M464.6,658.7c-6.4,4.5-3,22.2-3,22.2l-10.9-9.6
				l27.4-67.4l11.7,51.7C489.7,655.6,471,654.2,464.6,658.7z M683.7,701.5c-3,1.6,8.7-30.8,3.1-38.2c-5.6-7.4-22.2-6.6-22.2-6.6
				l1.4-8.9c0.2-1,9.9-50.6,9.9-50.6l3.3-3.9c0,0,33.9,58.1,40,78.6C719.2,671.9,682.2,701.5,683.7,701.5z"/>
		</g>
		<g>
			<path class="st7" d="M535.5,287.1l-45,47.8c0,0-6.2,5.5-3.7,19.3c2.5,13.9,8.2,25.8,12.5,26.7c4.3,0.9,10.4,0.9,10.4,0.9
				s1.4,28.5,17.4,42.1c0,0,1.5,19.3,0.2,28.2c0,0,16.2,14.1,31.4,15.9c15.2,1.8,38.7-21.5,38.7-21.5l3.2-18.8
				c0,0,15.5-18.9,17.4-36.3c0.6-5.6,7.3-4.1,10.4-6.9c3.1-2.7,10.3-15.1,11.5-26.7c1.2-11.6,1.3-25-12.2-21.1
				c-11.7-3.1-4.4-27.9-4.4-27.9l-20.6-18.1L535.5,287.1z"/>
		</g>
		<g class="st8">
			<path class="st5" d="M612.9,464c-0.7,1.8-1.5,3.6-2.3,5.2c-7.4,14-39.8,40.7-39.8,40.7l-9.8-30.1l-5.4,30.1
				c-10.8-4.7-43.7-33.2-43.7-33.2s-1.1-2.7-2.5-6.8c1.1-0.4,1.7-0.6,1.7-0.6s-1.4-15.6,2.6-26c7.9-13,13.9-8.5,13.9-8.5l-1.4,12.9
				c0,0,22.1,20.7,34,21c10.1,0.3,39.6-25,39.6-25l0.4-8.9c0,0,4.8-4.6,9.7,1.1c4.9,5.7,1.9,27.8,1.9,27.8L612.9,464z"/>
		</g>
		<g class="st9">
			<path d="M700.1,497.2L612.9,464l-1.1-0.4c0,0,0.3-2.3,0.6-5.7l-1.8,11.3l-12.9,17.5c0,0,21.8,7.9,40.2,17.7
				c12.8,6.9,20.2,20.8,18.5,35.2l-16.1,137.4l-6.6,78l19.9,20.6c21-6.7,95.3-34.4,134.7-99.8C788.4,676,750.2,550.7,700.1,497.2z
				 M683.7,701.5c-3,1.6,8.7-30.8,3.1-38.2c-5.6-7.4-22.2-6.6-22.2-6.6l1.4-8.9c0.2-1,9.9-50.6,9.9-50.6l3.3-3.9
				c0,0,33.9,58.1,40,78.6C719.2,671.9,682.2,701.5,683.7,701.5z"/>
		</g>
		<g class="st9">
			<path d="M495.6,663.4l-13.6-45.3c0,0-24.3-82.9-41-103.3l4.4,58.3c0,0-14.3,69.6-27.5,90.3c-13.2,20.7-16.1,25.8,0,25.8
				c16.1,0,55.2,31.2,55.2,31.2l-3-26L495.6,663.4z M461.6,680.9l-10.9-9.6l27.4-67.4l11.7,51.7c0,0-18.8-1.4-25.2,3.1
				C458.2,663.3,461.6,680.9,461.6,680.9z"/>
		</g>
		<g>
			<path class="st1" d="M526.3,450.2c-0.2,0-0.4,0-0.5-0.1c-1.3-0.3-2.2-1.6-1.9-3c1-4.6,1.3-12.6,0.8-23.1c-0.1-1.4,1-2.5,2.4-2.6
				c1.4-0.1,2.5,1,2.6,2.4c0.5,11.1,0.2,19.3-0.9,24.4C528.4,449.4,527.4,450.2,526.3,450.2z"/>
		</g>
		<g>
			<path class="st1" d="M599.9,446.2c-1.4,0-2.5-1.1-2.5-2.5c0-0.4-0.1-8.7,1.6-18.3c0.2-1.4,1.5-2.3,2.9-2c1.4,0.2,2.3,1.5,2,2.9
				c-1.6,9.1-1.5,17.3-1.5,17.4C602.4,445,601.3,446.2,599.9,446.2C599.9,446.2,599.9,446.2,599.9,446.2z"/>
		</g>
		<g>
			<path class="st1" d="M566.8,445.6c-28.2,0-47.2-23.7-54-38.5c-8.3-18-7.7-58-7.7-59.7c0-1.4,1.3-2.4,2.5-2.4
				c1.4,0,2.5,1.2,2.4,2.5c0,0.4-0.5,40.6,7.3,57.6c7.5,16.2,30.7,44.1,65,33.1c12.6-4,33.8-30.6,34.2-53.2
				c0.3-18.7,0.8-34.6,1.5-47.1c0.7-12.9-13.3-30.7-13.5-30.9c-0.9-1.1-0.7-2.6,0.4-3.5c1.1-0.8,2.6-0.7,3.5,0.4
				c0.6,0.8,15.4,19.5,14.6,34.3c-0.7,12.5-1.2,28.2-1.5,46.9c-0.4,25-23.4,53.3-37.6,57.8C577.8,444.7,572.1,445.6,566.8,445.6z"/>
		</g>
		<g>
			<path class="st1" d="M569.7,403.9c-3.3,0-7.2-0.6-10.1-1.9c-3.7-1.7-5-4.3-5.4-6.1c-0.3-1.3,0.6-2.7,1.9-2.9
				c1.4-0.3,2.7,0.6,2.9,1.9c0.1,0.4,0.3,1.5,2.4,2.5c4.1,2.1,11,1.7,12.3,1.1c1.3-0.7,2.2-2.2,2.4-4c0.3-2.4-0.6-4.8-2.4-6.6
				c-3.1-2.9-6.4-6.5-6.6-12c-0.1-5.3,0.3-10.7,1.2-15.9c0.2-1.4,1.6-2.2,2.9-2c1.4,0.2,2.3,1.5,2,2.9c-0.9,4.9-1.2,10-1.1,14.9
				c0.1,3.3,1.9,5.6,5,8.5c3,2.8,4.5,6.9,3.9,10.8c-0.5,3.4-2.3,6.3-5,7.7C574.9,403.5,572.5,403.9,569.7,403.9z"/>
		</g>
		<g>
			<path class="st1" d="M549,368.8c0,3.2-1.4,5.8-3.1,5.8c-1.7,0-3.1-2.6-3.1-5.8s1.4-5.8,3.1-5.8C547.6,363,549,365.6,549,368.8z"
				/>
		</g>
		<g>
			<path class="st1" d="M585.7,370.2c0-3.2,1.4-5.8,3.1-5.8c1.7,0,3.1,2.6,3.1,5.8c0,3.2-1.4,5.8-3.1,5.8
				C587.1,375.9,585.7,373.4,585.7,370.2z"/>
		</g>
		<g>
			<path class="st1" d="M609.5,363.9c-1.1,0-2.2-0.5-2.9-1.4c-2.9-3.8-6.1-5.8-9.5-6.1c-6.1-0.4-11.4,4.8-11.5,4.8
				c-1.4,1.4-3.8,1.4-5.2,0c-1.4-1.4-1.4-3.7,0-5.2c0.3-0.3,7.6-7.6,17.1-6.9c5.6,0.4,10.6,3.4,14.8,9c1.2,1.6,0.9,3.9-0.7,5.1
				C611,363.7,610.2,363.9,609.5,363.9z"/>
		</g>
		<g>
			<path class="st1" d="M530.4,362.5c-1.1,0-2.3-0.5-3-1.5c-1.2-1.6-0.8-3.9,0.9-5.1c13.4-9.6,24.4-3.8,28.3,0.5
				c1.3,1.5,1.2,3.8-0.3,5.2c-1.5,1.3-3.8,1.2-5.1-0.3c-0.8-0.8-7.5-7.4-18.6,0.5C531.9,362.3,531.2,362.5,530.4,362.5z"/>
		</g>
		<g>
			<path class="st1" d="M504,384.3c-1.9,0-4-0.3-6-1.2c-2.6-1.3-4.4-3.4-5.4-6.3c-0.4-1.1-0.9-2.5-1.5-4.1
				c-4.4-11.8-11.7-31.6-2.2-39.7c3.3-2.8,6.4-2.8,8.4-2.4c7.3,1.8,11.8,12.6,12.3,13.8c0.5,1.3-0.1,2.7-1.4,3.2
				c-1.3,0.5-2.7-0.1-3.2-1.4c-1-2.5-4.8-9.9-8.9-10.9c-0.8-0.2-2.1-0.3-4,1.3c-6.8,5.8,0.3,25,3.7,34.2c0.6,1.6,1.1,3,1.5,4.2
				c0.6,1.7,1.5,2.8,2.9,3.5c2.9,1.4,7.3,0.5,8.7,0c1.3-0.4,2.7,0.2,3.2,1.5c0.5,1.3-0.2,2.7-1.5,3.2
				C510.4,383.3,507.5,384.3,504,384.3z"/>
		</g>
		<g>
			<path class="st1" d="M621.7,388.6c-1.2,0-2.3-0.1-3.3-0.3c-1.3-0.3-2.2-1.6-1.9-2.9c0.3-1.3,1.6-2.2,2.9-1.9
				c0.4,0.1,8.8,1.6,11.1-5.3c0.4-1.2,0.9-2.6,1.5-4.2c3.4-9.2,10.5-28.3,3.7-34.2c-1.8-1.6-3.2-1.5-4-1.3c-4.1,1-7.9,8.4-8.9,10.9
				c-0.5,1.3-2,1.9-3.2,1.4c-1.3-0.5-1.9-2-1.4-3.2c0.5-1.2,5.1-12.1,12.3-13.8c2-0.5,5.1-0.5,8.4,2.4c9.4,8.1,2.1,27.9-2.2,39.7
				c-0.6,1.6-1.1,2.9-1.5,4.1C632.9,386.8,626.5,388.6,621.7,388.6z"/>
		</g>
		<g>
			<path class="st1" d="M507.3,368.8c3.2-0.1,2.3-1.2,4-3.9c1.7-2.8,2.4-6,3-9.2c1.1-6.1,1.6-12.3,1.6-18.5c0-2.4,0.1-7.1,0.9-9.4
				c2-5.2,6.9-8.5,10.8-13.4c3.9-4.9,6.7-11.2,5.7-17.4c0,0,38.4,17.5,76.6,10c20.6-4,24.4-12.3,22-35c-0.9-8.1-5.7-16.4-13.4-18.4
				c-10.2-2.5-15.2-1.8-25-1c-19.4,1.5-26.8-3.8-43.7-5.7c-14.5-1.6-27.5-0.3-35,14.1c0,0-14.2,2.6-25.6,24
				c-11.4,21.4-1.6,51.5-1.6,51.5s8.7-10.6,19.9,10.8L507.3,368.8z"/>
		</g>
		<g>
			<path class="st1" d="M608.1,299.9c0,0-6.7,35.1,10.8,52.1c0,0,3.8-10.6,7.7-13.1c0,0,9.8-18.5-3.1-39
				C610.8,279.4,608.1,299.9,608.1,299.9z"/>
		</g>
		<g class="st9">
			<path class="st5" d="M504.4,316.8c-0.1,0-0.1,0-0.2,0c-1.4-0.1-2.4-1.3-2.3-2.6c0.7-10.2,6.2-20.4,15.2-28.1
				c9.2-7.9,20.4-11.8,30.9-10.9c6.9,0.6,12.9,2.5,18.7,4.4c4.8,1.5,9.8,3.1,15.1,3.9c0.2,0,22.7,3.2,32.9-4.4
				c1.1-0.8,2.7-0.6,3.5,0.5c0.8,1.1,0.6,2.7-0.5,3.5c-11.8,8.8-35.6,5.5-36.6,5.3c-5.8-0.9-10.9-2.5-15.9-4.1
				c-5.8-1.9-11.3-3.6-17.6-4.2c-8.9-0.8-19.1,2.9-27.2,9.7c-8,6.8-12.9,15.8-13.5,24.7C506.7,315.8,505.6,316.8,504.4,316.8z"/>
		</g>
		<g class="st9">
			<path class="st5" d="M494.3,312.1C494.3,312.1,494.3,312.1,494.3,312.1c-1.4,0-2.5-1.2-2.5-2.5c0.4-17.1,11.7-33.5,27.5-39.9
				c1.3-0.5,2.7,0.1,3.2,1.4c0.5,1.3-0.1,2.7-1.4,3.2c-14,5.7-24.1,20.2-24.4,35.4C496.8,311,495.7,312.1,494.3,312.1z"/>
		</g>
		<g>
			<path class="st1" d="M558.6,471.7c-0.3,0-0.6-0.1-0.9-0.2c-22.2-8.4-38.3-25.9-39-26.7c-0.9-1-0.8-2.6,0.2-3.5
				c1-0.9,2.6-0.8,3.5,0.2c0.2,0.2,15.6,17,36.2,25c4.7-1.5,29.1-10.1,42-27.7c0.8-1.1,2.4-1.4,3.5-0.5c1.1,0.8,1.4,2.4,0.5,3.5
				c-15.2,20.8-44.2,29.4-45.4,29.8C559,471.7,558.8,471.7,558.6,471.7z"/>
		</g>
		<g>
			<path class="st1" d="M555.7,512.4c-0.4,0-0.7-0.1-1.1-0.3c-20.2-9.9-43.4-32.7-44.4-33.7c-0.4-0.4-0.7-0.9-0.7-1.5
				c-0.3-2.7-2.7-26.4,2.1-34.9c5.1-8.9,13.7-10.8,14.1-10.9c1.4-0.3,2.7,0.6,2.9,1.9c0.3,1.3-0.6,2.7-1.9,2.9
				c-0.3,0.1-6.9,1.5-10.8,8.4c-3.3,5.8-2.3,23.6-1.6,31c3.7,3.5,22.5,21.3,39.5,30.6l5.3-30c0.2-1.1,1.2-2,2.3-2
				c1.2,0,2.2,0.7,2.5,1.8l8.2,29.9c7.8-5.8,29-22.7,35.9-37.2c0.8-6.2,2.2-22,0.1-27.2c-2.1-5.4-6.8-5.2-6.9-5.2
				c-1.3,0.1-2.5-1-2.6-2.4c-0.1-1.4,1-2.5,2.4-2.6c0.3,0,8.3-0.3,11.7,8.4c3,7.5,0.5,27.8,0.2,30.1c0,0.3-0.1,0.5-0.2,0.7
				c-8.8,19-39.3,40.7-40.6,41.6c-0.7,0.5-1.5,0.6-2.3,0.3c-0.8-0.3-1.3-0.9-1.6-1.7l-6.3-22.8l-4,22.5c-0.1,0.8-0.6,1.4-1.3,1.8
				C556.5,512.3,556.1,512.4,555.7,512.4z"/>
		</g>
		<g>
			<path class="st1" d="M489.2,659.2c-1.2,0-2.3-0.9-2.5-2.1c-0.1-0.6-9.3-61.8-21.3-86.4c-0.6-1.2-0.1-2.7,1.1-3.3
				c1.2-0.6,2.7-0.1,3.3,1.1c12.3,25.3,21.4,85.3,21.7,87.8c0.2,1.4-0.7,2.6-2.1,2.8C489.4,659.2,489.3,659.2,489.2,659.2z"/>
		</g>
		<g>
			<path class="st1" d="M460.2,549.2c-0.9,0-1.8-0.5-2.2-1.4c-7.2-15.2-18.8-31.4-18.9-31.6c-0.8-1.1-0.5-2.7,0.6-3.5
				c1.1-0.8,2.7-0.5,3.5,0.6c0.5,0.7,11.9,16.7,19.3,32.4c0.6,1.2,0.1,2.7-1.2,3.3C461,549.1,460.6,549.2,460.2,549.2z"/>
		</g>
		<g>
			<path class="st1" d="M683.7,563.4c-0.2,0-0.4,0-0.6-0.1c-1.3-0.3-2.1-1.7-1.8-3c3.6-13.7,7.1-24,10.3-30.7
				c0.6-1.2,2.1-1.7,3.3-1.1c1.2,0.6,1.7,2.1,1.1,3.3c-3.1,6.3-6.4,16.3-10,29.7C685.8,562.7,684.8,563.4,683.7,563.4z"/>
		</g>
		<g>
			<path class="st1" d="M664.6,659.2c-0.1,0-0.3,0-0.4,0c-1.4-0.2-2.3-1.5-2.1-2.8c0.1-0.4,6.8-42.9,14.6-77.5
				c0.3-1.3,1.7-2.2,3-1.9c1.3,0.3,2.2,1.6,1.9,3c-7.8,34.5-14.5,76.8-14.6,77.2C666.9,658.3,665.9,659.2,664.6,659.2z"/>
		</g>
		<g>
			<path class="st1" d="M666.9,771.4c-1.1,0-2.1-0.7-2.4-1.8c-0.4-1.3,0.4-2.7,1.7-3.1c72.7-20.6,114-82.5,119.4-90.9
				c-42.5-128.8-82.7-172.1-86.9-176.3c-34.3-12.1-87.3-33.2-87.8-33.4c-1.3-0.5-1.9-2-1.4-3.2c0.5-1.3,1.9-1.9,3.2-1.4
				c0.5,0.2,54,21.5,88.2,33.6c0.3,0.1,0.6,0.3,0.9,0.5c1.8,1.7,43.6,42.1,88.9,179.8c0.2,0.7,0.1,1.4-0.2,2
				c-0.4,0.7-43.3,71.5-122.9,94.1C667.3,771.4,667.1,771.4,666.9,771.4z"/>
		</g>
		<g>
			<path class="st1" d="M680.7,706.5c-0.7,0-1.4-0.3-1.9-0.9c-0.9-1.1-0.7-2.6,0.3-3.5l38.5-32.1c1-0.7,21.9-16.3,44.2-5.2
				c1.2,0.6,1.7,2.1,1.1,3.3c-0.6,1.2-2.1,1.7-3.3,1.1c-19.5-9.7-38.7,4.5-38.9,4.6l-38.4,32C681.9,706.3,681.3,706.5,680.7,706.5z"
				/>
		</g>
		<g>
			<path class="st1" d="M719.2,674.4c-1.1,0-2.1-0.7-2.4-1.9c-7.9-30.9-41.4-78.9-41.7-79.4c-0.8-1.1-0.5-2.7,0.6-3.5
				c1.1-0.8,2.7-0.5,3.5,0.6c1.4,2,34.3,49.2,42.5,81c0.3,1.3-0.5,2.7-1.8,3C719.6,674.4,719.4,674.4,719.2,674.4z"/>
		</g>
		<g>
			<path class="st1" d="M461.9,685.1c-0.6,0-1.2-0.2-1.7-0.7l-10.7-10.2c-3.3-0.3-17.4-1-33.1,9.5c-1.1,0.8-2.7,0.5-3.4-0.7
				c-0.8-1.1-0.5-2.7,0.7-3.5c19.5-13.1,36.7-10.3,37.4-10.1c0.5,0.1,0.9,0.3,1.3,0.7l11.3,10.7c1,0.9,1,2.5,0.1,3.5
				C463.2,684.9,462.6,685.1,461.9,685.1z"/>
		</g>
		<g>
			<path class="st1" d="M450.7,674.4c-0.2,0-0.5,0-0.7-0.1c-1.3-0.4-2.1-1.8-1.7-3.1c0.6-1.9,14.2-46.5,28-70.1
				c0.7-1.2,2.2-1.6,3.4-0.9c1.2,0.7,1.6,2.2,0.9,3.4c-13.5,23.2-27.4,68.6-27.5,69.1C452.7,673.7,451.7,674.4,450.7,674.4z"/>
		</g>
		<g>
			<path class="st1" d="M478.4,767.5c-0.4,0-0.8-0.1-1.2-0.3c-0.9-0.5-91.4-48.9-90.4-71.8c0.7-16.3,29.2-181,37.7-190.4
				c7.7-8.6,77.7-35.1,85.7-38c1.3-0.5,2.7,0.2,3.2,1.5c0.5,1.3-0.2,2.7-1.5,3.2c-30.8,11.6-78.5,30.9-83.7,36.7
				c-6.2,7.3-35.5,165.1-36.4,187.3c-0.5,13.3,50.6,47.5,87.8,67.2c1.2,0.6,1.7,2.1,1,3.4C480.2,767,479.3,767.5,478.4,767.5z"/>
		</g>
		<g>
			<g>
				<path class="st1" d="M658.1,795.1H482.5c-2.3,0-4.1-1.8-4.1-4.1l0,0c0-2.3,1.8-4.1,4.1-4.1h175.6c2.3,0,4.1,1.8,4.1,4.1l0,0
					C662.2,793.2,660.4,795.1,658.1,795.1z"/>
			</g>
			<g>
				<path class="st5" d="M664.2,781.4l23.5-110.5c1.6-7.3-4-14.2-11.5-14.2H471.1c-7.4,0-13,6.8-11.5,14l21.1,106.8
					c1.1,5.4,5.8,9.4,11.3,9.5l160.5,3.7C658.1,790.9,663.1,787,664.2,781.4z"/>
				<path class="st1" d="M652.7,793.2c-0.1,0-0.2,0-0.3,0l-160.5-3.7c-6.7-0.2-12.3-4.9-13.6-11.5l-21.1-106.8
					c-0.8-4.2,0.3-8.5,3-11.8c2.7-3.3,6.7-5.2,11-5.2h205.2c4.3,0,8.4,1.9,11.1,5.3c2.7,3.4,3.8,7.7,2.9,11.9L666.7,782l0,0
					C665.3,788.5,659.4,793.2,652.7,793.2z M471.1,659.2c-2.8,0-5.4,1.2-7.2,3.4c-1.8,2.2-2.5,5-1.9,7.7l21.1,106.8
					c0.8,4.3,4.5,7.4,8.9,7.5l160.5,3.7c4.5,0.2,8.4-3,9.3-7.3l23.5-110.5c0.6-2.8-0.1-5.6-1.9-7.8c-1.8-2.2-4.4-3.4-7.2-3.4H471.1z
					 M664.2,781.4L664.2,781.4L664.2,781.4z"/>
			</g>
			<g>
				<path class="st1" d="M621.8,669.7h-92.5c-1.4,0-2.5-1.1-2.5-2.5c0-1.4,1.1-2.5,2.5-2.5h92.5c1.4,0,2.5,1.1,2.5,2.5
					C624.3,668.6,623.2,669.7,621.8,669.7z"/>
			</g>
		</g>
		<g>
			<path class="st1" d="M664.6,898.7l-18.7,49.1c0,0-47.7-12-108.8-24.5c-63.9-13.1-130.6-30-165.2-90.8c-4.2-7.4-7-16.2-5.1-24.4
				c5-21,32.3-26.7,50.3-28.8c11.3-1.3,22.7-1.8,34-1.9c5.8-0.1,24.9-3.1,29.5,0.3c0,0,12,8.8,22.2,13.2
				c10.2,4.3,159.3-3.9,159.3-3.9s4.4-9.4,4.7-17.9c23.4-11.9,77.7-22,100.6-17.5c36.1,7,57.1,28,53.1,50.1
				C816.6,823.5,737.1,882.6,664.6,898.7z"/>
		</g>
		<g>
			<path class="st5" d="M664.6,901.2c-0.2,0-0.4,0-0.6-0.1c-0.5-0.1-46.2-12.4-83.2-37.4c-6-4-11.8-8.2-17.4-12.3
				c-28.9-20.7-56.2-40.4-98.6-35.4c-1.4,0.1-2.6-0.8-2.8-2.2c-0.2-1.4,0.8-2.6,2.2-2.8c44.3-5.2,72.3,15,102,36.3
				c5.6,4,11.4,8.2,17.3,12.2c36.3,24.5,81.2,36.6,81.7,36.7c1.3,0.3,2.1,1.7,1.8,3C666.8,900.4,665.7,901.2,664.6,901.2z"/>
		</g>
		<g>
			<path class="st5" d="M573.7,858.2c-1.1,0-2.1-0.7-2.4-1.8c-0.4-1.3,0.4-2.7,1.7-3.1c20.1-5.8,35.4-17.9,51.7-30.6
				c2.3-1.8,4.6-3.6,6.9-5.4c16.8-13,39.2-29.5,64-42c1.2-0.6,2.7-0.1,3.3,1.1c0.6,1.2,0.1,2.7-1.1,3.3
				c-24.4,12.4-46.6,28.7-63.2,41.5c-2.3,1.8-4.6,3.6-6.8,5.3c-16.6,13.1-32.4,25.5-53.4,31.5C574.2,858.1,573.9,858.2,573.7,858.2z
				"/>
		</g>
		<g>
			<path class="st1" d="M570.3,372.7h-6.9c-1.4,0-2.5-1.1-2.5-2.5c0-1.4,1.1-2.5,2.5-2.5h6.9c1.4,0,2.5,1.1,2.5,2.5
				C572.8,371.5,571.7,372.7,570.3,372.7z"/>
		</g>
		<g>
			<path class="st1" d="M539.1,389c-4.6,0-9-0.7-13.2-2c-4.5-1.4-9.7-3.7-10.4-8.8l-2.8-20.4c-0.7-5.3,3.6-10.1,10.1-11.1
				c10.7-1.6,22-1.5,33.4,0.3c6,0.9,10.2,5.5,9.7,10.6l-1.9,20.2c-0.3,3-2.3,7-10.6,9.2l0,0C548.5,388.4,543.7,389,539.1,389z
				 M552.8,384.6L552.8,384.6L552.8,384.6z M538.4,350.6c-5,0-10,0.4-14.8,1.1c-3.7,0.6-6.3,3-5.9,5.5l2.8,20.4
				c0.2,1.8,2.5,3.3,7,4.7c7.6,2.4,15.7,2.4,24.8,0c2.5-0.7,6.7-2.2,6.9-4.8l1.9-20.2c0.2-2.5-2.2-4.7-5.5-5.2
				C549.7,351.1,544,350.6,538.4,350.6z"/>
		</g>
		<g>
			<path class="st1" d="M594.3,389c-4.5,0-9-0.7-13.3-2c-4.1-1.2-9.6-3.5-10.3-8.8l-2.7-20.4c-0.7-5.3,3.6-10.1,10-11
				c10.5-1.6,21.6-1.5,32.8,0.3c5.9,0.9,10.1,5.5,9.6,10.6l-1.8,20.2c-0.4,4.2-3.9,7.3-10.4,9.2C603.5,388.4,598.9,389,594.3,389z
				 M593.3,350.6c-4.9,0-9.8,0.4-14.5,1.1c-3.6,0.6-6.1,3-5.8,5.5l2.7,20.4c0.2,1.8,2.5,3.4,6.8,4.7c7.8,2.4,15.9,2.4,24.3,0l0,0
				c3-0.9,6.6-2.4,6.8-4.8l1.8-20.2c0.2-2.5-2.1-4.7-5.4-5.3C604.3,351.1,598.8,350.6,593.3,350.6z"/>
		</g>
		<g>
			<path class="st1" d="M509.7,381.8c0,0,13.9,32,24.1,34.4c10.2,2.3,6.9-17.5,25-7.9c4.9,2.6,16.5-5.5,21.1,5.1
				c4.6,10.6,28-0.8,38.6-20c0,0-12.9,36.2-27.3,42.4c-14.5,6.3-24.6,12.3-46.5,1.8C522.7,427.1,510.9,404,509.7,381.8z"/>
		</g>
		<g>
			<path class="st5" d="M553.8,414.4c0,0,7.2,1.8,12.3,1.1c5.1-0.7,10.2,0,9.2,3.7s-14.1,10.2-22.9,2.4
				C543.7,413.9,550.9,413.7,553.8,414.4z"/>
		</g>
	</g>
	<g>
		<path class="st1" d="M266.1,464.7l9.3,98.9c0.2,2.6,2.1,4.7,4.7,5.4l40.5,10.6c1.1,0.3,2.3,0.3,3.4,0l40.7-10.6
			c2.6-0.7,4.5-2.8,4.7-5.4l9.3-98.9c0.3-3.6-2.6-6.7-6.4-6.7h-99.9C268.7,457.9,265.8,461.1,266.1,464.7z"/>
		<path class="st10" d="M270.6,467.4l8.8,93.5c0.2,1.7,1.4,3.1,3.1,3.6l38.7,10.2c0.7,0.2,1.5,0.2,2.2,0l38.8-10.2
			c1.7-0.4,3-1.9,3.1-3.6l8.8-93.5c0.2-2.4-1.7-4.5-4.2-4.5h-95.2C272.3,462.9,270.4,465,270.6,467.4z"/>
		<path class="st1" d="M274.4,469.4l8.4,89.5c0.1,1,0.8,1.8,1.8,2.1l37.1,9.8c0.4,0.1,0.9,0.1,1.3,0l37.2-9.8c1-0.3,1.7-1.1,1.8-2.1
			l8.4-89.5c0.1-1.4-1-2.6-2.5-2.6h-91.1C275.4,466.8,274.3,468,274.4,469.4z"/>
		<g>
			<path class="st10" d="M294.4,549.9l-6.2-69.9h68.5l-6.2,69.9l-28,7.8L294.4,549.9z"/>
			<path class="st11" d="M322.4,551.8l22.7-6.3l5.3-59.7h-28L322.4,551.8z"/>
			<path class="st5" d="M322.4,511.1h11.3l0.8-8.8h-12.1v-8.6h21.5l-0.2,2.3l-2.1,23.6h-19.2L322.4,511.1z"/>
			<path class="st12" d="M322.5,533.3L322.5,533.3l-9.6-2.6l-0.6-6.8h-8.6l1.2,13.5l17.6,4.9l0,0V533.3z"/>
			<path class="st5" d="M333,519.3l-1,11.5l-9.6,2.6v8.9l17.6-4.9l0.1-1.4l1.5-16.7H333z"/>
			<path class="st12" d="M322.5,493.7v8.6h-20.7l-0.2-1.9l-0.4-4.3l-0.2-2.3H322.5z M322.4,511.1v8.6H313l-0.2-1.9l-0.4-4.3
				l-0.2-2.3H322.4z"/>
		</g>
	</g>
	<g>
		<path class="st1" d="M684.2,341l8.2,87.3c0.2,2.3,1.9,4.2,4.2,4.8l35.8,9.4c1,0.3,2,0.3,3,0l35.9-9.4c2.3-0.6,3.9-2.5,4.2-4.8
			l8.2-87.3c0.3-3.2-2.3-5.9-5.6-5.9h-88.2C686.5,335.1,683.9,337.8,684.2,341z"/>
		<path class="st13" d="M688.2,343.4L696,426c0.1,1.5,1.2,2.8,2.8,3.2l34.2,9c0.6,0.2,1.3,0.2,2,0l34.3-9c1.5-0.4,2.6-1.7,2.8-3.2
			l7.8-82.5c0.2-2.1-1.5-3.9-3.7-3.9h-84C689.7,339.5,688,341.3,688.2,343.4z"/>
		<path class="st1" d="M691.5,345.3l7.4,79c0.1,0.9,0.7,1.6,1.6,1.8l32.8,8.6c0.4,0.1,0.8,0.1,1.2,0l32.9-8.7c0.9-0.2,1.5-1,1.6-1.8
			l7.4-79c0.1-1.2-0.9-2.3-2.2-2.3h-80.4C692.4,343,691.4,344,691.5,345.3z"/>
		<g>
			<path class="st13" d="M709,416.1l-5.5-62.2h61l-5.6,62.2l-25,6.9L709,416.1z"/>
			<path class="st14" d="M733.9,417.8l20.2-5.6l4.7-53.2h-24.9V417.8z"/>
			<path class="st12" d="M733.9,382.1h-10.1l-0.7-7.8h10.8v-7.6h-19.1l0.2,2l1.9,21h17.1V382.1z M733.9,401.9L733.9,401.9l-8.5-2.3
				l-0.5-6.1h-7.7l1.1,12l15.6,4.3l0,0V401.9z"/>
			<path class="st5" d="M733.9,382.1v7.6h9.4l-0.9,9.9l-8.5,2.3v7.9l15.6-4.3l0.1-1.3l1.8-20.1l0.2-2h-2.1H733.9z M733.9,366.6v7.6
				h18.4l0.2-1.7l0.3-3.9l0.2-2H733.9z"/>
		</g>
	</g>
	<g>
		<path class="st1" d="M252.8,605.5l-76.3,44.1c-1.2,0.7-2,2-2,3.4v88.1c0,1.4,0.8,2.7,2,3.4l76.3,44.1c1.2,0.7,2.7,0.7,4,0
			l76.3-44.1c1.2-0.7,2-2,2-3.4V653c0-1.4-0.8-2.7-2-3.4l-76.3-44.1C255.5,604.8,254,604.8,252.8,605.5z"/>
		<path class="st15" d="M253.1,610.4l-72.6,41.9c-1,0.6-1.6,1.6-1.6,2.8V739c0,1.2,0.6,2.2,1.6,2.8l72.6,41.9c1,0.6,2.2,0.6,3.2,0
			l72.6-41.9c1-0.6,1.6-1.6,1.6-2.8v-83.8c0-1.2-0.6-2.2-1.6-2.8l-72.6-41.9C255.4,609.8,254.1,609.8,253.1,610.4z"/>
		<path class="st1" d="M253.5,615.8L185,655.3c-0.8,0.4-1.2,1.3-1.2,2.2v79.1c0,0.9,0.5,1.7,1.2,2.2l68.5,39.5
			c0.8,0.4,1.7,0.4,2.5,0l68.5-39.5c0.8-0.4,1.2-1.3,1.2-2.2v-79.1c0-0.9-0.5-1.7-1.2-2.2L256,615.8
			C255.2,615.4,254.3,615.4,253.5,615.8z"/>
		<g>
			<path class="st15" d="M254.7,755.4c-1.6,0-3.1-0.4-4.5-1.2l-14.3-8.5c-2.1-1.2-1.1-1.6-0.4-1.8c2.9-1,3.4-1.2,6.4-2.9
				c0.3-0.2,0.8-0.1,1.1,0.1l10.9,6.5c0.4,0.2,1,0.2,1.3,0l42.8-24.8c0.4-0.2,0.6-0.6,0.6-1.2v-49.4c0-0.5-0.2-1-0.6-1.2l-42.8-24.7
				c-0.4-0.2-1-0.2-1.3,0l-42.8,24.7c-0.4,0.2-0.6,0.8-0.6,1.2v49.4c0,0.4,0.2,1,0.6,1.2l11.7,6.8c6.3,3.2,10.3-0.5,10.3-4.3v-48.8
				c0-0.6,0.5-1.3,1.3-1.3h5.5c0.6,0,1.3,0.5,1.3,1.3v48.8c0,8.5-4.6,13.4-12.7,13.4c-2.5,0-4.4,0-9.9-2.7l-11.3-6.4
				c-2.8-1.6-4.5-4.6-4.5-7.8v-49.4c0-3.2,1.7-6.2,4.5-7.8l42.8-24.8c2.7-1.5,6.3-1.5,9,0l42.8,24.8c2.8,1.6,4.5,4.6,4.5,7.8v49.4
				c0,3.2-1.7,6.2-4.5,7.8l-42.8,24.8C257.8,755.1,256.2,755.4,254.7,755.4L254.7,755.4z M267.9,721.4c-18.8,0-22.6-8.6-22.6-15.9
				c0-0.6,0.5-1.3,1.3-1.3h5.6c0.6,0,1.2,0.4,1.2,1.1c0.9,5.7,3.3,8.5,14.7,8.5c9,0,12.9-2,12.9-6.9c0-2.8-1.1-4.8-15.1-6.2
				c-11.7-1.2-19-3.8-19-13.1c0-8.7,7.3-13.8,19.5-13.8c13.7,0,20.5,4.7,21.3,15c0,0.3-0.1,0.6-0.3,1c-0.2,0.2-0.5,0.4-0.9,0.4h-5.6
				c-0.5,0-1.1-0.4-1.2-1c-1.3-5.9-4.6-7.8-13.4-7.8c-9.9,0-11,3.4-11,6c0,3.1,1.4,4.1,14.7,5.8c13.2,1.7,19.4,4.2,19.4,13.4
				C289.3,716.1,281.6,721.4,267.9,721.4L267.9,721.4z"/>
		</g>
	</g>
	<g>
		<g>
			<path class="st16" d="M592.2,239.6c-0.9,0-1.7-0.4-2.2-1.2c-0.5-0.7-0.6-1.6-0.2-2.4l19.5-44.7v-81.1c0-6.8,5.5-12.3,12.3-12.3
				h100.9c6.8,0,12.3,5.5,12.3,12.3v100.9c0,6.8-5.5,12.3-12.3,12.3h-85.8l-43.7,16.1C592.8,239.6,592.5,239.6,592.2,239.6z"/>
		</g>
		<path class="st1" d="M728.8,219.9h-119c-3,0-5.4-2.4-5.4-5.4v-119c0-3,2.4-5.4,5.4-5.4h119c3,0,5.4,2.4,5.4,5.4v119
			C734.2,217.5,731.8,219.9,728.8,219.9z"/>
		<path class="st17" d="M726.2,216.3H612.4c-2.5,0-4.5-2-4.5-4.5V98.1c0-2.5,2-4.5,4.5-4.5h113.8c2.5,0,4.5,2,4.5,4.5v113.8
			C730.7,214.3,728.7,216.3,726.2,216.3z"/>
		<path class="st1" d="M724,213.1H614.7c-2,0-3.5-1.6-3.5-3.5V100.4c0-2,1.6-3.5,3.5-3.5H724c2,0,3.5,1.6,3.5,3.5v109.2
			C727.5,211.6,725.9,213.1,724,213.1z"/>
		<path class="st17" d="M631.8,117.4v75.2h75.2v-75.2H631.8z M671.5,181.5c-1.1,2.3-3.2,3.7-5.7,4.4c-3.8,0.9-7.4,0.4-10.1-1.2
			c-1.8-1.1-3.2-2.8-4.1-4.8l5.7-3.5c0,0,0.2,0.3,0.4,0.6c0.7,1.2,1.4,2.1,2.6,2.7c1.2,0.4,3.9,0.7,4.9-1.5c0.6-1.1,0.4-4.6,0.4-8.5
			c0-6.1,0-12.1,0-18.1h7c0,6.6,0,12.9,0,19.3C672.8,175,673.1,178.5,671.5,181.5z M700.7,179.5c-2.4,8.4-16.1,8.6-21.5,3.1
			c-1.2-1.3-1.9-2-2.6-3.5c2.9-1.7,2.9-1.7,5.7-3.3c1.5,2.4,2.9,3.6,5.5,4.2c3.5,0.4,6.9-0.8,6.2-4.4c-0.8-3-7.1-3.7-11.3-6.9
			c-4.3-2.9-5.4-10-1.8-14c1.2-1.5,3.2-2.6,5.3-3.1l2.2-0.3c4.3-0.1,6.9,1,8.9,3.2c0.5,0.6,1,1.1,1.8,2.4c-2.3,1.4-2.3,1.4-5.5,3.5
			c-0.7-1.5-1.8-2.4-3.1-2.8c-1.9-0.6-4.3,0-4.8,2c-0.2,0.6-0.1,1.2,0.1,2.2c0.8,1.7,3.3,2.5,5.6,3.6c6.6,2.7,8.9,5.6,9.4,9
			C701.5,177.3,700.8,179.2,700.7,179.5z"/>
	</g>
	<path class="st14" d="M288.2,256.3H174.5c-0.6,0-1.1-0.5-1.1-1.1v-7.7c0-0.6,0.5-1.1,1.1-1.1h113.8c0.6,0,1.1,0.5,1.1,1.1v7.7
		C289.3,255.8,288.8,256.3,288.2,256.3z"/>
	<path class="st18" d="M371.5,292.1H173.7c-0.2,0-0.4-0.2-0.4-0.4v-3.6c0-0.2,0.2-0.4,0.4-0.4h197.8c0.2,0,0.4,0.2,0.4,0.4v3.6
		C371.9,292,371.7,292.1,371.5,292.1z"/>
	<path class="st1" d="M444.8,256.3H304.6c-0.6,0-1.1-0.5-1.1-1.1v-7.7c0-0.6,0.5-1.1,1.1-1.1h140.1c0.6,0,1.1,0.5,1.1,1.1v7.7
		C445.9,255.8,445.4,256.3,444.8,256.3z"/>
	<path class="st10" d="M335,276.9H174.5c-0.6,0-1.1-0.5-1.1-1.1v-7.7c0-0.6,0.5-1.1,1.1-1.1H335c0.6,0,1.1,0.5,1.1,1.1v7.7
		C336.1,276.4,335.6,276.9,335,276.9z"/>
	<path class="st10" d="M444.8,276.9h-93.6c-0.6,0-1.1-0.5-1.1-1.1v-7.7c0-0.6,0.5-1.1,1.1-1.1h93.6c0.6,0,1.1,0.5,1.1,1.1v7.7
		C445.9,276.4,445.4,276.9,444.8,276.9z"/>
	<path class="st14" d="M323.4,331.5h-149c-0.6,0-1.1-0.5-1.1-1.1v-7.7c0-0.6,0.5-1.1,1.1-1.1h149c0.6,0,1.1,0.5,1.1,1.1v7.7
		C324.5,331,324,331.5,323.4,331.5z"/>
	<path class="st10" d="M371.5,367.3H173.7c-0.2,0-0.4-0.2-0.4-0.4v-3.6c0-0.2,0.2-0.4,0.4-0.4h197.8c0.2,0,0.4,0.2,0.4,0.4v3.6
		C371.9,367.1,371.7,367.3,371.5,367.3z"/>
	<path class="st14" d="M444.8,331.5H344c-0.6,0-1.1-0.5-1.1-1.1v-7.7c0-0.6,0.5-1.1,1.1-1.1h100.8c0.6,0,1.1,0.5,1.1,1.1v7.7
		C445.9,331,445.4,331.5,444.8,331.5z"/>
	<path class="st1" d="M266.7,352h-92.3c-0.6,0-1.1-0.5-1.1-1.1v-7.7c0-0.6,0.5-1.1,1.1-1.1h92.3c0.6,0,1.1,0.5,1.1,1.1v7.7
		C267.8,351.6,267.3,352,266.7,352z"/>
	<path class="st1" d="M444.8,352H287.3c-0.6,0-1.1-0.5-1.1-1.1v-7.7c0-0.6,0.5-1.1,1.1-1.1h157.5c0.6,0,1.1,0.5,1.1,1.1v7.7
		C445.9,351.6,445.4,352,444.8,352z"/>
	<path class="st1" d="M574.7,711.1l3.5,8.9c0.2,0.4,0.6,0.7,1,0.7h10.7c1.1,0,1.5,1.5,0.6,2l-8.3,5c-0.5,0.3-0.6,0.8-0.5,1.3
		l3.2,8.3c0.4,1-0.7,1.9-1.6,1.3l-9.1-5.5c-0.3-0.2-0.8-0.2-1.1,0l-9.1,5.5c-0.9,0.5-2-0.4-1.6-1.3l3.2-8.3c0.2-0.5,0-1.1-0.5-1.3
		l-8.3-5c-1-0.6-0.5-2,0.6-2h10.7c0.5,0,0.9-0.3,1-0.7l3.5-8.9C573,710.2,574.4,710.2,574.7,711.1z"/>
	<g>
		<circle class="st1" cx="873" cy="247.8" r="86.7"/>
		<circle class="st19" cx="873" cy="247.8" r="81.7"/>
		<circle class="st1" cx="873" cy="247.8" r="77.6"/>
		<g>
			<path class="st19" d="M930.8,247.8c0-7.7-9.6-14.9-24.3-19.4c3.4-15,1.9-26.9-4.8-30.7c-1.5-0.9-3.3-1.3-5.3-1.3v5.3
				c1.1,0,2,0.2,2.7,0.6c3.2,1.8,4.6,8.8,3.5,17.8c-0.3,2.2-0.7,4.5-1.2,6.9c-4.6-1.1-9.7-2-15-2.6c-3.2-4.4-6.5-8.3-9.8-11.8
				c7.7-7.1,14.9-11,19.8-11v-5.3c-6.5,0-15,4.6-23.5,12.6c-8.6-8-17.1-12.5-23.5-12.5v5.3c4.9,0,12.1,3.9,19.8,11
				c-3.3,3.5-6.6,7.4-9.7,11.8c-5.3,0.6-10.4,1.4-15,2.6c-0.5-2.4-0.9-4.6-1.2-6.8c-1.1-9,0.3-16,3.4-17.9c0.7-0.4,1.6-0.6,2.7-0.6
				v-5.3c-2,0-3.8,0.4-5.3,1.3c-6.6,3.8-8.1,15.7-4.7,30.6c-14.6,4.5-24.2,11.8-24.2,19.4c0,7.7,9.6,14.9,24.3,19.4
				c-3.4,15-1.9,26.9,4.8,30.7c1.5,0.9,3.3,1.3,5.3,1.3c6.5,0,15-4.6,23.5-12.6c8.6,8,17.1,12.5,23.5,12.5c2,0,3.8-0.4,5.3-1.3
				c6.6-3.8,8.1-15.7,4.7-30.6C921.3,262.7,930.8,255.5,930.8,247.8L930.8,247.8z M900.1,232.1c-0.9,3-2,6.2-3.2,9.3
				c-1-1.9-2-3.8-3.1-5.7c-1.1-1.9-2.2-3.7-3.4-5.5C893.8,230.8,897,231.4,900.1,232.1L900.1,232.1z M889.3,257.2
				c-1.8,3.2-3.7,6.2-5.7,9c-3.5,0.3-7.1,0.5-10.6,0.5c-3.6,0-7.1-0.2-10.6-0.4c-2-2.8-3.9-5.8-5.7-8.9c-1.8-3.1-3.4-6.2-4.9-9.4
				c1.5-3.2,3.1-6.3,4.9-9.4c1.8-3.2,3.7-6.2,5.7-9c3.5-0.3,7.1-0.5,10.6-0.5c3.6,0,7.1,0.2,10.6,0.4c2,2.8,3.9,5.8,5.7,8.9
				c1.8,3.1,3.4,6.2,4.9,9.4C892.7,251,891.1,254.1,889.3,257.2L889.3,257.2z M896.9,254.1c1.3,3.2,2.4,6.3,3.3,9.4
				c-3.1,0.8-6.3,1.4-9.7,1.9c1.2-1.8,2.3-3.7,3.4-5.6C895,257.9,896,256,896.9,254.1L896.9,254.1z M873.1,279.3
				c-2.2-2.3-4.4-4.8-6.5-7.5c2.1,0.1,4.3,0.2,6.5,0.2c2.2,0,4.4,0,6.5-0.2C877.4,274.5,875.2,277,873.1,279.3z M855.5,265.4
				c-3.3-0.5-6.6-1.1-9.7-1.9c0.9-3,2-6.2,3.2-9.3c1,1.9,2,3.8,3.1,5.7C853.3,261.8,854.4,263.6,855.5,265.4z M873,216.4
				c2.2,2.3,4.4,4.8,6.5,7.5c-2.1-0.1-4.3-0.2-6.5-0.2c-2.2,0-4.4,0-6.5,0.2C868.6,221.2,870.8,218.7,873,216.4z M855.5,230.3
				c-1.2,1.8-2.3,3.7-3.4,5.6c-1.1,1.9-2.1,3.8-3.1,5.7c-1.3-3.2-2.4-6.3-3.2-9.4C848.9,231.4,852.2,230.8,855.5,230.3L855.5,230.3z
				 M834.2,259.7c-8.3-3.6-13.7-8.2-13.7-11.9s5.4-8.4,13.7-11.9c2-0.9,4.2-1.6,6.5-2.4c1.3,4.6,3.1,9.4,5.3,14.3
				c-2.2,4.9-3.9,9.7-5.2,14.3C838.5,261.4,836.3,260.6,834.2,259.7L834.2,259.7z M846.9,293.4c-3.2-1.8-4.6-8.8-3.5-17.8
				c0.3-2.2,0.7-4.5,1.2-6.9c4.6,1.1,9.7,2,15,2.6c3.2,4.4,6.5,8.3,9.8,11.8c-7.7,7.1-14.9,11-19.8,11
				C848.5,294,847.6,293.8,846.9,293.4L846.9,293.4z M902.7,275.5c1.1,9-0.3,16-3.4,17.9c-0.7,0.4-1.6,0.6-2.7,0.6
				c-4.9,0-12.1-3.9-19.8-11c3.3-3.5,6.6-7.4,9.7-11.8c5.3-0.6,10.4-1.4,15-2.6C902.1,271,902.5,273.3,902.7,275.5z M911.8,259.7
				c-2,0.9-4.2,1.6-6.5,2.4c-1.3-4.6-3.1-9.4-5.3-14.3c2.2-4.9,3.9-9.7,5.2-14.3c2.3,0.7,4.5,1.5,6.6,2.4
				c8.3,3.6,13.7,8.2,13.7,11.9C925.5,251.5,920.1,256.2,911.8,259.7L911.8,259.7z"/>
			<circle class="st19" cx="873" cy="247.8" r="10.8"/>
		</g>
	</g>
	<g>
		<g>
			<g>
				<g>
					<g>
						<g>
							<path class="st16" d="M802.7,630.4c-0.9,0-1.8-0.5-2.3-1.2c-0.5-0.8-0.6-1.7-0.2-2.6l20.6-47.4v-85.9c0-7.2,5.8-13,13-13
								h106.8c7.2,0,13,5.8,13,13v106.8c0,7.2-5.8,13-13,13h-90.8l-46.2,17C803.4,630.4,803,630.4,802.7,630.4z"/>
						</g>
					</g>
				</g>
			</g>
			<g>
				<g>
					<g>
						<path class="st1" d="M941.3,598.5H814.7c-3,0-5.4-2.4-5.4-5.4V466.6c0-3,2.4-5.4,5.4-5.4h126.6c3,0,5.4,2.4,5.4,5.4v126.6
							C946.6,596.1,944.2,598.5,941.3,598.5z"/>
					</g>
				</g>
			</g>
			<g>
				<g>
					<g>
						<path class="st20" d="M936.7,593.1H819.2c-2.5,0-4.5-2-4.5-4.5V471.1c0-2.5,2-4.5,4.5-4.5h117.5c2.5,0,4.5,2,4.5,4.5v117.5
							C941.2,591.1,939.2,593.1,936.7,593.1z"/>
					</g>
				</g>
			</g>
			<g>
				<g>
					<g>
						<path class="st1" d="M933.4,588.9H822.5c-2,0-3.5-1.6-3.5-3.5V474.4c0-2,1.6-3.5,3.5-3.5h110.9c2,0,3.5,1.6,3.5,3.5v110.9
							C937,587.3,935.4,588.9,933.4,588.9z"/>
					</g>
				</g>
			</g>
		</g>
		<g>
			<g>
				<g>
					<path class="st20" d="M910,490.1h-64c-4.3,0-7.8,3.5-7.8,7.8v64c0,4.3,3.5,7.8,7.8,7.8h64c4.3,0,7.8-3.5,7.8-7.8v-64
						C917.7,493.6,914.3,490.1,910,490.1z M884.3,534.2h-9.9v28.4h-7.9v-28.4h-9.9v-6.4h27.8V534.2z M910,557.5
						c-0.6,1.4-1.7,2.4-3,3.3c-1.2,0.8-2.6,1.4-4.4,1.7c-1.7,0.4-3.4,0.5-5.3,0.5c-1.9,0-3.7-0.2-5.4-0.5c-1.7-0.3-3.2-0.8-4.5-1.5
						v-7.5c-0.1-0.1-0.2-0.1-0.3-0.2l0.3-0.1v0.3c1.3,1.1,2.8,1.9,4.4,2.4c1.6,0.6,3.3,0.9,5,0.9c1.1,0,1.9-0.1,2.6-0.3
						c0.8-0.2,1.4-0.4,1.9-0.7c0.5-0.3,0.9-0.7,1.1-1.1c0.2-0.4,0.4-0.9,0.4-1.4c0-0.7-0.2-1.3-0.6-1.9c-0.4-0.5-0.9-1-1.6-1.5
						c-0.6-0.5-1.4-0.9-2.3-1.3c-0.9-0.4-1.9-0.9-3-1.3c-2.6-1.2-4.7-2.5-6.1-4.2c-1.4-1.6-2-3.6-2-5.9c0-1.9,0.4-3.4,1.1-4.7
						c0.8-1.4,1.7-2.4,3-3.3c1.2-0.9,2.6-1.5,4.4-1.9c1.7-0.4,3.4-0.6,5.3-0.6c1.9,0,3.4,0.1,4.8,0.3c1.4,0.2,2.7,0.6,3.9,1v7.3
						c-0.5-0.4-1.2-0.8-1.9-1.1c-0.7-0.3-1.4-0.6-2.2-0.8c-0.7-0.2-1.5-0.4-2.2-0.5c-0.7-0.1-1.4-0.1-2-0.1c-0.9,0-1.8,0.1-2.5,0.2
						c-0.7,0.2-1.4,0.4-1.9,0.7c-0.5,0.3-0.9,0.7-1.2,1.1c-0.3,0.4-0.4,0.9-0.4,1.4c0,0.6,0.2,1.1,0.5,1.6c0.3,0.5,0.7,0.9,1.3,1.3
						c0.5,0.4,1.2,0.8,2,1.2c0.9,0.4,1.8,0.8,2.8,1.2c1.4,0.6,2.6,1.2,3.7,1.9c1.1,0.6,2,1.4,2.8,2.2c0.8,0.8,1.4,1.7,1.9,2.8
						c0.4,1.1,0.6,2.3,0.6,3.7C911.1,554.6,910.6,556.1,910,557.5z"/>
				</g>
			</g>
		</g>
	</g>
</g>
</svg>
