<svg id="Capa_1" enable-background="new 0 0 497.882 497.882" height="512" viewBox="0 0 497.882 497.882" width="512" xmlns="http://www.w3.org/2000/svg"><path d="m248.941 248.941c0-92.09 50.133-172.303 124.47-215.365-36.644-21.229-79.074-33.576-124.47-33.576-137.486 0-248.941 111.455-248.941 248.941s111.455 248.941 248.941 248.941c45.396 0 87.826-12.347 124.47-33.575-74.337-43.063-124.47-123.277-124.47-215.366zm-175.884 31.379c-13.088.729-24.856-19.515-26.286-45.214-1.428-25.699 8.022-47.123 21.11-47.85s24.856 19.515 26.286 45.214c1.429 25.701-8.022 47.123-21.11 47.85zm60.222 107.867c-7.871 4.545-22.05-5.28-31.67-21.944-9.622-16.662-11.039-33.854-3.168-38.399s22.05 5.28 31.67 21.944c9.622 16.662 11.039 33.854 3.168 38.399z"/><path d="m422.033 342.293-17.503-46.676-17.504 46.676h-44.731l32.533 32.533-16.974 45.261 46.676-15.559 46.676 15.559-16.974-45.261 32.533-32.533z"/><path d="m497.882 155.588h-52.9l-24.894-62.235-24.894 62.235h-52.9l40.076 32.06-24.518 61.293 62.235-31.118 62.235 31.118-24.518-61.293z"/></svg>